<mxfile host="app.diagrams.net" modified="2023-11-13T18:37:23.173Z" agent="Mozilla/5.0 (Windows NT 10.0; Win64; x64) AppleWebKit/537.36 (KHTML, like Gecko) Chrome/119.0.0.0 Safari/537.36" etag="QJODCBMDpjgjpa9z0NP3" version="22.1.0" type="device">
  <diagram name="Sida-1" id="Dnk4GrSCSOoY8IXHYafE">
    <mxGraphModel dx="3141" dy="1142" grid="1" gridSize="10" guides="1" tooltips="1" connect="1" arrows="1" fold="1" page="1" pageScale="1" pageWidth="827" pageHeight="1169" math="0" shadow="0">
      <root>
        <mxCell id="0" />
        <mxCell id="1" parent="0" />
        <mxCell id="wkEBBRB9uq4ybTQVWoT4-64" style="edgeStyle=orthogonalEdgeStyle;rounded=0;orthogonalLoop=1;jettySize=auto;html=1;entryX=0;entryY=0.5;entryDx=0;entryDy=0;" edge="1" parent="1" source="wkEBBRB9uq4ybTQVWoT4-1" target="wkEBBRB9uq4ybTQVWoT4-2">
          <mxGeometry relative="1" as="geometry" />
        </mxCell>
        <mxCell id="wkEBBRB9uq4ybTQVWoT4-1" value="" style="image;html=1;image=img/lib/clip_art/computers/Workstation_128x128.png" vertex="1" parent="1">
          <mxGeometry x="10" y="280" width="80" height="80" as="geometry" />
        </mxCell>
        <mxCell id="wkEBBRB9uq4ybTQVWoT4-18" style="edgeStyle=orthogonalEdgeStyle;rounded=0;orthogonalLoop=1;jettySize=auto;html=1;" edge="1" parent="1" source="wkEBBRB9uq4ybTQVWoT4-2" target="wkEBBRB9uq4ybTQVWoT4-4">
          <mxGeometry relative="1" as="geometry" />
        </mxCell>
        <mxCell id="wkEBBRB9uq4ybTQVWoT4-2" value="" style="image;html=1;image=img/lib/clip_art/computers/Server_Tower_128x128.png" vertex="1" parent="1">
          <mxGeometry x="150" y="280" width="80" height="80" as="geometry" />
        </mxCell>
        <mxCell id="wkEBBRB9uq4ybTQVWoT4-23" style="edgeStyle=orthogonalEdgeStyle;rounded=0;orthogonalLoop=1;jettySize=auto;html=1;entryX=0.957;entryY=0.48;entryDx=0;entryDy=0;entryPerimeter=0;" edge="1" parent="1" source="wkEBBRB9uq4ybTQVWoT4-4" target="wkEBBRB9uq4ybTQVWoT4-5">
          <mxGeometry relative="1" as="geometry">
            <mxPoint x="369" y="450" as="targetPoint" />
            <mxPoint x="369" y="350" as="sourcePoint" />
            <Array as="points">
              <mxPoint x="369" y="440" />
            </Array>
          </mxGeometry>
        </mxCell>
        <mxCell id="wkEBBRB9uq4ybTQVWoT4-27" style="edgeStyle=orthogonalEdgeStyle;rounded=0;orthogonalLoop=1;jettySize=auto;html=1;entryX=0.5;entryY=0;entryDx=0;entryDy=0;" edge="1" parent="1" source="wkEBBRB9uq4ybTQVWoT4-4" target="wkEBBRB9uq4ybTQVWoT4-8">
          <mxGeometry relative="1" as="geometry" />
        </mxCell>
        <mxCell id="wkEBBRB9uq4ybTQVWoT4-65" style="edgeStyle=orthogonalEdgeStyle;rounded=0;orthogonalLoop=1;jettySize=auto;html=1;entryX=-0.029;entryY=0.382;entryDx=0;entryDy=0;entryPerimeter=0;" edge="1" parent="1" source="wkEBBRB9uq4ybTQVWoT4-4" target="wkEBBRB9uq4ybTQVWoT4-6">
          <mxGeometry relative="1" as="geometry">
            <mxPoint x="374" y="200" as="targetPoint" />
            <Array as="points">
              <mxPoint x="374" y="198" />
            </Array>
          </mxGeometry>
        </mxCell>
        <mxCell id="wkEBBRB9uq4ybTQVWoT4-4" value="" style="sketch=0;pointerEvents=1;shadow=0;dashed=0;html=1;strokeColor=none;fillColor=#505050;labelPosition=center;verticalLabelPosition=bottom;verticalAlign=top;outlineConnect=0;align=center;shape=mxgraph.office.users.administrator;" vertex="1" parent="1">
          <mxGeometry x="345" y="292" width="58" height="56" as="geometry" />
        </mxCell>
        <mxCell id="wkEBBRB9uq4ybTQVWoT4-5" value="" style="sketch=0;pointerEvents=1;shadow=0;dashed=0;html=1;strokeColor=none;fillColor=#505050;labelPosition=center;verticalLabelPosition=bottom;verticalAlign=top;outlineConnect=0;align=center;shape=mxgraph.office.users.users;" vertex="1" parent="1">
          <mxGeometry x="198" y="416" width="46" height="50" as="geometry" />
        </mxCell>
        <mxCell id="wkEBBRB9uq4ybTQVWoT4-43" style="edgeStyle=orthogonalEdgeStyle;rounded=0;orthogonalLoop=1;jettySize=auto;html=1;entryX=0.5;entryY=0;entryDx=0;entryDy=0;" edge="1" parent="1" source="wkEBBRB9uq4ybTQVWoT4-6" target="wkEBBRB9uq4ybTQVWoT4-10">
          <mxGeometry relative="1" as="geometry" />
        </mxCell>
        <mxCell id="wkEBBRB9uq4ybTQVWoT4-44" style="edgeStyle=orthogonalEdgeStyle;rounded=0;orthogonalLoop=1;jettySize=auto;html=1;entryX=0.5;entryY=0;entryDx=0;entryDy=0;" edge="1" parent="1" source="wkEBBRB9uq4ybTQVWoT4-6" target="wkEBBRB9uq4ybTQVWoT4-42">
          <mxGeometry relative="1" as="geometry" />
        </mxCell>
        <mxCell id="wkEBBRB9uq4ybTQVWoT4-55" style="edgeStyle=orthogonalEdgeStyle;rounded=0;orthogonalLoop=1;jettySize=auto;html=1;entryX=1.024;entryY=0.15;entryDx=0;entryDy=0;entryPerimeter=0;exitX=0;exitY=0.909;exitDx=0;exitDy=0;exitPerimeter=0;" edge="1" parent="1" source="wkEBBRB9uq4ybTQVWoT4-6" target="wkEBBRB9uq4ybTQVWoT4-8">
          <mxGeometry relative="1" as="geometry">
            <mxPoint x="590" y="440" as="targetPoint" />
            <mxPoint x="590" y="177.5" as="sourcePoint" />
            <Array as="points">
              <mxPoint x="590" y="442" />
            </Array>
          </mxGeometry>
        </mxCell>
        <mxCell id="wkEBBRB9uq4ybTQVWoT4-6" value="" style="sketch=0;pointerEvents=1;shadow=0;dashed=0;html=1;strokeColor=none;fillColor=#505050;labelPosition=center;verticalLabelPosition=bottom;verticalAlign=top;outlineConnect=0;align=center;shape=mxgraph.office.concepts.on_premises;" vertex="1" parent="1">
          <mxGeometry x="590" y="177" width="34" height="55" as="geometry" />
        </mxCell>
        <mxCell id="wkEBBRB9uq4ybTQVWoT4-47" style="edgeStyle=orthogonalEdgeStyle;rounded=0;orthogonalLoop=1;jettySize=auto;html=1;entryX=0.25;entryY=0;entryDx=0;entryDy=0;" edge="1" parent="1" source="wkEBBRB9uq4ybTQVWoT4-7" target="wkEBBRB9uq4ybTQVWoT4-42">
          <mxGeometry relative="1" as="geometry" />
        </mxCell>
        <mxCell id="wkEBBRB9uq4ybTQVWoT4-7" value="" style="html=1;verticalLabelPosition=bottom;align=center;labelBackgroundColor=#ffffff;verticalAlign=top;strokeWidth=2;strokeColor=#000000;shadow=0;dashed=0;shape=mxgraph.ios7.icons.map;" vertex="1" parent="1">
          <mxGeometry x="504.5" y="299" width="30" height="30" as="geometry" />
        </mxCell>
        <mxCell id="wkEBBRB9uq4ybTQVWoT4-34" style="edgeStyle=orthogonalEdgeStyle;rounded=0;orthogonalLoop=1;jettySize=auto;html=1;entryX=-0.077;entryY=0.375;entryDx=0;entryDy=0;entryPerimeter=0;" edge="1" parent="1" source="wkEBBRB9uq4ybTQVWoT4-8" target="wkEBBRB9uq4ybTQVWoT4-9">
          <mxGeometry relative="1" as="geometry">
            <mxPoint x="432.5" y="620" as="targetPoint" />
            <Array as="points">
              <mxPoint x="433" y="578" />
            </Array>
          </mxGeometry>
        </mxCell>
        <mxCell id="wkEBBRB9uq4ybTQVWoT4-51" style="edgeStyle=orthogonalEdgeStyle;rounded=0;orthogonalLoop=1;jettySize=auto;html=1;entryX=0;entryY=0.5;entryDx=0;entryDy=0;" edge="1" parent="1" source="wkEBBRB9uq4ybTQVWoT4-8" target="wkEBBRB9uq4ybTQVWoT4-42">
          <mxGeometry relative="1" as="geometry" />
        </mxCell>
        <mxCell id="wkEBBRB9uq4ybTQVWoT4-8" value="&lt;b style=&quot;font-weight:normal;&quot; id=&quot;docs-internal-guid-9e6da1bd-7fff-884f-2ec3-e17bcd4a4d77&quot;&gt;&lt;span style=&quot;font-size: 11pt; font-family: Arial, sans-serif; color: rgb(0, 0, 0); background-color: transparent; font-weight: 400; font-style: normal; font-variant: normal; text-decoration: none; vertical-align: baseline;&quot;&gt;&lt;span style=&quot;border:none;display:inline-block;overflow:hidden;width:82px;height:82px;&quot;&gt;&lt;img src=&quot;https://lh7-us.googleusercontent.com/K7d_zg_BDB-1NZBKFG_zPa2ZpOOGBhs8UOcB8ofUqHWBVdGit3B1TP0nQxVwa08pG1KcFYkpLLwxa8QDbMnKuEyMo4V_YEwA6_xggqONxXETpEkJQpp9q9ctr_8tNxkDua4F0fjZ40ps3OyDIK7DnBo&quot; width=&quot;82&quot; height=&quot;82&quot; style=&quot;margin-left:0px;margin-top:0px;&quot;&gt;&lt;/span&gt;&lt;/span&gt;&lt;/b&gt;" style="text;whiteSpace=wrap;html=1;" vertex="1" parent="1">
          <mxGeometry x="390" y="430" width="85" height="80" as="geometry" />
        </mxCell>
        <mxCell id="wkEBBRB9uq4ybTQVWoT4-9" value="" style="sketch=0;pointerEvents=1;shadow=0;dashed=0;html=1;strokeColor=none;fillColor=#505050;labelPosition=center;verticalLabelPosition=bottom;verticalAlign=top;outlineConnect=0;align=center;shape=mxgraph.office.concepts.maintenance;" vertex="1" parent="1">
          <mxGeometry x="470" y="557" width="39" height="56" as="geometry" />
        </mxCell>
        <mxCell id="wkEBBRB9uq4ybTQVWoT4-10" value="&lt;b style=&quot;font-weight:normal;&quot; id=&quot;docs-internal-guid-29c6d78d-7fff-7773-d6b9-0c9c9031104e&quot;&gt;&lt;span style=&quot;font-size: 11pt; font-family: Arial, sans-serif; color: rgb(0, 0, 0); background-color: transparent; font-weight: 400; font-style: normal; font-variant: normal; text-decoration: none; vertical-align: baseline;&quot;&gt;&lt;span style=&quot;border:none;display:inline-block;overflow:hidden;width:64px;height:64px;&quot;&gt;&lt;img src=&quot;https://lh7-us.googleusercontent.com/SHGFR2fCqD93huKSDuDwYgoJKYllovL1GuTjq8xxDwp6iekA5PZ8ZkDac-vxDvQ9M0ZAUSqcwlYi3GpM1pEBX9eZRQ5v2cIgeSmve81H9-Ec-Ky5BESfWBVHDWJpIBiEwN3DbMZPk1YPf74fNFXmf0c&quot; width=&quot;64&quot; height=&quot;64&quot; style=&quot;margin-left:0px;margin-top:0px;&quot;&gt;&lt;/span&gt;&lt;/span&gt;&lt;/b&gt;" style="text;whiteSpace=wrap;html=1;" vertex="1" parent="1">
          <mxGeometry x="700" y="285" width="70" height="70" as="geometry" />
        </mxCell>
        <mxCell id="wkEBBRB9uq4ybTQVWoT4-11" value="" style="image;html=1;image=img/lib/clip_art/computers/Database_128x128.png" vertex="1" parent="1">
          <mxGeometry x="323" y="590" width="80" height="80" as="geometry" />
        </mxCell>
        <mxCell id="wkEBBRB9uq4ybTQVWoT4-13" value="http&lt;br&gt;request" style="text;html=1;align=center;verticalAlign=middle;resizable=0;points=[];autosize=1;strokeColor=none;fillColor=none;" vertex="1" parent="1">
          <mxGeometry x="80" y="280" width="60" height="40" as="geometry" />
        </mxCell>
        <mxCell id="wkEBBRB9uq4ybTQVWoT4-14" value="login" style="text;html=1;align=center;verticalAlign=middle;resizable=0;points=[];autosize=1;strokeColor=none;fillColor=none;" vertex="1" parent="1">
          <mxGeometry x="165" y="255" width="50" height="30" as="geometry" />
        </mxCell>
        <mxCell id="wkEBBRB9uq4ybTQVWoT4-15" value="" style="endArrow=classic;startArrow=classic;html=1;rounded=0;exitX=0;exitY=0.5;exitDx=0;exitDy=0;strokeColor=#FF6666;entryX=0.5;entryY=1;entryDx=0;entryDy=0;" edge="1" parent="1" source="wkEBBRB9uq4ybTQVWoT4-11" target="wkEBBRB9uq4ybTQVWoT4-2">
          <mxGeometry width="50" height="50" relative="1" as="geometry">
            <mxPoint x="351" y="630" as="sourcePoint" />
            <mxPoint x="130" y="360" as="targetPoint" />
            <Array as="points">
              <mxPoint x="190" y="630" />
            </Array>
          </mxGeometry>
        </mxCell>
        <mxCell id="wkEBBRB9uq4ybTQVWoT4-16" value="database" style="text;html=1;align=center;verticalAlign=middle;resizable=0;points=[];autosize=1;strokeColor=none;fillColor=none;" vertex="1" parent="1">
          <mxGeometry x="328" y="680" width="70" height="30" as="geometry" />
        </mxCell>
        <mxCell id="wkEBBRB9uq4ybTQVWoT4-20" value="" style="endArrow=classic;startArrow=classic;html=1;rounded=0;exitX=0;exitY=0.5;exitDx=0;exitDy=0;strokeColor=#FF6666;" edge="1" parent="1" source="wkEBBRB9uq4ybTQVWoT4-11" target="wkEBBRB9uq4ybTQVWoT4-5">
          <mxGeometry width="50" height="50" relative="1" as="geometry">
            <mxPoint x="419" y="628" as="sourcePoint" />
            <mxPoint x="220" y="360" as="targetPoint" />
            <Array as="points">
              <mxPoint x="220" y="630" />
            </Array>
          </mxGeometry>
        </mxCell>
        <mxCell id="wkEBBRB9uq4ybTQVWoT4-26" style="edgeStyle=orthogonalEdgeStyle;rounded=0;orthogonalLoop=1;jettySize=auto;html=1;entryX=0;entryY=0.7;entryDx=0;entryDy=0;entryPerimeter=0;" edge="1" parent="1" source="wkEBBRB9uq4ybTQVWoT4-4" target="wkEBBRB9uq4ybTQVWoT4-7">
          <mxGeometry relative="1" as="geometry" />
        </mxCell>
        <mxCell id="wkEBBRB9uq4ybTQVWoT4-35" value="" style="endArrow=classic;startArrow=classic;html=1;rounded=0;entryX=0;entryY=0.663;entryDx=0;entryDy=0;exitX=0.5;exitY=0;exitDx=0;exitDy=0;entryPerimeter=0;strokeColor=#FF6666;" edge="1" parent="1" source="wkEBBRB9uq4ybTQVWoT4-11" target="wkEBBRB9uq4ybTQVWoT4-8">
          <mxGeometry width="50" height="50" relative="1" as="geometry">
            <mxPoint x="364" y="646" as="sourcePoint" />
            <mxPoint x="403" y="483.03999999999996" as="targetPoint" />
            <Array as="points">
              <mxPoint x="363" y="483" />
            </Array>
          </mxGeometry>
        </mxCell>
        <mxCell id="wkEBBRB9uq4ybTQVWoT4-36" value="" style="endArrow=classic;startArrow=classic;html=1;rounded=0;exitX=0.963;exitY=0.625;exitDx=0;exitDy=0;strokeColor=#FF6666;entryX=0.588;entryY=1.091;entryDx=0;entryDy=0;entryPerimeter=0;exitPerimeter=0;" edge="1" parent="1" source="wkEBBRB9uq4ybTQVWoT4-11" target="wkEBBRB9uq4ybTQVWoT4-6">
          <mxGeometry width="50" height="50" relative="1" as="geometry">
            <mxPoint x="803" y="466" as="sourcePoint" />
            <mxPoint x="610" y="196" as="targetPoint" />
            <Array as="points">
              <mxPoint x="610" y="640" />
            </Array>
          </mxGeometry>
        </mxCell>
        <mxCell id="wkEBBRB9uq4ybTQVWoT4-37" value="maintenence" style="text;html=1;align=center;verticalAlign=middle;resizable=0;points=[];autosize=1;strokeColor=none;fillColor=none;" vertex="1" parent="1">
          <mxGeometry x="439.5" y="613" width="90" height="30" as="geometry" />
        </mxCell>
        <mxCell id="wkEBBRB9uq4ybTQVWoT4-38" value="map" style="text;html=1;align=center;verticalAlign=middle;resizable=0;points=[];autosize=1;strokeColor=none;fillColor=none;" vertex="1" parent="1">
          <mxGeometry x="494.5" y="262" width="50" height="30" as="geometry" />
        </mxCell>
        <mxCell id="wkEBBRB9uq4ybTQVWoT4-39" value="manage customers" style="text;html=1;align=center;verticalAlign=middle;resizable=0;points=[];autosize=1;strokeColor=none;fillColor=none;" vertex="1" parent="1">
          <mxGeometry x="230" y="405" width="130" height="30" as="geometry" />
        </mxCell>
        <mxCell id="wkEBBRB9uq4ybTQVWoT4-40" value="cities" style="text;html=1;align=center;verticalAlign=middle;resizable=0;points=[];autosize=1;strokeColor=none;fillColor=none;" vertex="1" parent="1">
          <mxGeometry x="582" y="147" width="50" height="30" as="geometry" />
        </mxCell>
        <mxCell id="wkEBBRB9uq4ybTQVWoT4-42" value="&lt;b style=&quot;font-weight:normal;&quot; id=&quot;docs-internal-guid-e5aaa85a-7fff-fb42-e406-7641818d08ee&quot;&gt;&lt;span style=&quot;font-size: 11pt; font-family: Arial, sans-serif; color: rgb(0, 0, 0); background-color: transparent; font-weight: 400; font-style: normal; font-variant: normal; text-decoration: none; vertical-align: baseline;&quot;&gt;&lt;span style=&quot;border:none;display:inline-block;overflow:hidden;width:63px;height:63px;&quot;&gt;&lt;img src=&quot;https://lh7-us.googleusercontent.com/ykquQ5NsERu5z0iUN3_cvxSebfUfIA4ylOgznwXGZZPmBF1fL9AgsMlnEOeyFCp1KM6kc2OtCMj3HZLcqOx67Y4ldHXQyfc5zEf66NkT-Uor2yH9iLVyVhnBnveWYcYzZCWAGl_3TcqW72v_J4G8zO8&quot; width=&quot;63&quot; height=&quot;63&quot; style=&quot;margin-left:0px;margin-top:0px;&quot;&gt;&lt;/span&gt;&lt;/span&gt;&lt;/b&gt;" style="text;whiteSpace=wrap;html=1;" vertex="1" parent="1">
          <mxGeometry x="640" y="435" width="70" height="70" as="geometry" />
        </mxCell>
        <mxCell id="wkEBBRB9uq4ybTQVWoT4-46" style="edgeStyle=orthogonalEdgeStyle;rounded=0;orthogonalLoop=1;jettySize=auto;html=1;entryX=0;entryY=0.414;entryDx=0;entryDy=0;entryPerimeter=0;" edge="1" parent="1" source="wkEBBRB9uq4ybTQVWoT4-7" target="wkEBBRB9uq4ybTQVWoT4-10">
          <mxGeometry relative="1" as="geometry" />
        </mxCell>
        <mxCell id="wkEBBRB9uq4ybTQVWoT4-52" value="charging&lt;br&gt;stations" style="text;html=1;align=center;verticalAlign=middle;resizable=0;points=[];autosize=1;strokeColor=none;fillColor=none;" vertex="1" parent="1">
          <mxGeometry x="700" y="460" width="70" height="40" as="geometry" />
        </mxCell>
        <mxCell id="wkEBBRB9uq4ybTQVWoT4-53" value="parking&lt;br&gt;zones" style="text;html=1;align=center;verticalAlign=middle;resizable=0;points=[];autosize=1;strokeColor=none;fillColor=none;" vertex="1" parent="1">
          <mxGeometry x="760" y="300" width="60" height="40" as="geometry" />
        </mxCell>
        <mxCell id="wkEBBRB9uq4ybTQVWoT4-56" value="" style="endArrow=classic;startArrow=classic;html=1;rounded=0;strokeColor=#FF6666;exitX=0.963;exitY=0.863;exitDx=0;exitDy=0;exitPerimeter=0;entryX=0.483;entryY=1.033;entryDx=0;entryDy=0;entryPerimeter=0;" edge="1" parent="1" source="wkEBBRB9uq4ybTQVWoT4-11" target="wkEBBRB9uq4ybTQVWoT4-7">
          <mxGeometry width="50" height="50" relative="1" as="geometry">
            <mxPoint x="419.5" y="660" as="sourcePoint" />
            <mxPoint x="554.5" y="340" as="targetPoint" />
            <Array as="points">
              <mxPoint x="520" y="660" />
            </Array>
          </mxGeometry>
        </mxCell>
        <mxCell id="wkEBBRB9uq4ybTQVWoT4-57" value="admin&lt;br&gt;information" style="text;html=1;align=center;verticalAlign=middle;resizable=0;points=[];autosize=1;strokeColor=none;fillColor=none;" vertex="1" parent="1">
          <mxGeometry x="110" y="380" width="80" height="40" as="geometry" />
        </mxCell>
        <mxCell id="wkEBBRB9uq4ybTQVWoT4-58" value="customer&lt;br&gt;information" style="text;html=1;align=center;verticalAlign=middle;resizable=0;points=[];autosize=1;strokeColor=none;fillColor=none;" vertex="1" parent="1">
          <mxGeometry x="220" y="480" width="80" height="40" as="geometry" />
        </mxCell>
        <mxCell id="wkEBBRB9uq4ybTQVWoT4-59" value="bike&lt;br&gt;information" style="text;html=1;align=center;verticalAlign=middle;resizable=0;points=[];autosize=1;strokeColor=none;fillColor=none;" vertex="1" parent="1">
          <mxGeometry x="290" y="510" width="80" height="40" as="geometry" />
        </mxCell>
        <mxCell id="wkEBBRB9uq4ybTQVWoT4-60" value="bike,&lt;br&gt;charging&lt;br&gt;and&lt;br&gt;parking&lt;br&gt;information" style="text;html=1;align=center;verticalAlign=middle;resizable=0;points=[];autosize=1;strokeColor=none;fillColor=none;" vertex="1" parent="1">
          <mxGeometry x="524.5" y="524" width="80" height="90" as="geometry" />
        </mxCell>
        <mxCell id="wkEBBRB9uq4ybTQVWoT4-61" value="admin" style="text;html=1;align=center;verticalAlign=middle;resizable=0;points=[];autosize=1;strokeColor=none;fillColor=none;" vertex="1" parent="1">
          <mxGeometry x="370" y="269" width="60" height="30" as="geometry" />
        </mxCell>
        <mxCell id="wkEBBRB9uq4ybTQVWoT4-62" value="bikes" style="text;html=1;align=center;verticalAlign=middle;resizable=0;points=[];autosize=1;strokeColor=none;fillColor=none;" vertex="1" parent="1">
          <mxGeometry x="414" y="450" width="50" height="30" as="geometry" />
        </mxCell>
        <mxCell id="wkEBBRB9uq4ybTQVWoT4-63" value="admin interface" style="text;html=1;align=center;verticalAlign=middle;resizable=0;points=[];autosize=1;strokeColor=none;fillColor=none;" vertex="1" parent="1">
          <mxGeometry x="-5" y="239" width="110" height="30" as="geometry" />
        </mxCell>
      </root>
    </mxGraphModel>
  </diagram>
</mxfile>
